# xmcd
#
# Track frame offsets:
#	150
#	8580
#	19087
#	28207
#	36525
#	47847
#	57152
#	65630
#	77625
#	87075
#	99002
#	108105
#	119565
#
# Disc length: 1738 seconds
#
# Revision: 1
# Processed by: cddbd v1.4PL0 Copyright (c) Steve Scherf et al.
# Submitted via: audiograbber 1.81.03
#
DISCID=9e06c80d
DTITLE=Chad Morgan - Cock Of The Walk
DYEAR=1985
DGENRE=Country
TTITLE0=Cock Of The Walk
TTITLE1=I Don't Flirt Anymore
TTITLE2=Pretty Womanitis
TTITLE3=A Sucker For A Girl Like That
TTITLE4=Take Me Back To The Good Old Days
TTITLE5=I've Got A Tiger By The Tail
TTITLE6=The Sheik Of Scrubby Creek
TTITLE7=Watcha Gonna Do Now
TTITLE8=Dancing
TTITLE9=Seven Deadly Sins
TTITLE10=Two Cents In My Poke
TTITLE11=Gettin' Younger
TTITLE12=A World Full Of Women
EXTD=
EXTT0=
EXTT1=
EXTT2=
EXTT3=
EXTT4=
EXTT5=
EXTT6=
EXTT7=
EXTT8=
EXTT9=
EXTT10=
EXTT11=
EXTT12=
PLAYORDER=
